<?xml version="1.0" encoding="UTF-8"?>
<svg id="Layer_1" xmlns="http://www.w3.org/2000/svg" version="1.1" viewBox="0 0 256.03 156.56">
  <!-- Generator: Adobe Illustrator 29.1.0, SVG Export Plug-In . SVG Version: 2.1.0 Build 142)  -->
  <defs>
    <style>
      .st0 {
        fill: #efcf9d;
      }

      .st1 {
        fill: #cf1f36;
      }

      .st2 {
        fill: #a06a44;
      }

      .st3 {
        fill: #b9a27d;
      }

      .st4 {
        fill: #84b347;
      }

      .st5 {
        fill: #93c64f;
      }
    </style>
  </defs>
  <path class="st2" d="M.02,27.27c-1.25,10.98,64.46,30.9,122.55,32.06,65.17,1.3,134.73-20.73,133.45-32.06C253.64,6.11,2.43,6.16.02,27.27Z"/>
  <path class="st4" d="M95.74,23.09c5.4,3.34,12.24-4.95,24.39-4.18,6.49.41,6.91,2.93,12.89,4.18,20.41,4.28,36.16-20.7,48.08-14.63,4.9,2.49,3.14,7.18,9.76,10.8,7.01,3.84,10.82-.42,20.56,1.74,10.52,2.34,11.44,8.51,21.95,11.5,7.46,2.12,14.45,1.13,19.63-.27-12.77,10.21-58.28,44.03-125.56,43.83-66.53-.2-111.48-33.54-124.34-43.83,1.12-1.43,3.15-3.58,6.23-4.61,6.66-2.22,10.54,3.4,16.72,2.79,10.3-1.02,12.22-17.88,20.43-17.93,6.44-.04,7.14,10.34,15.11,12.01,11.42,2.39,22.04-16.4,28.57-13.06,3.83,1.96,1.09,8.89,5.57,11.67Z"/>
  <path class="st5" d="M166.99,86.97c2.16,1.08,6.94-15.49,22.35-22.96,11.53-5.59,23.25-3.3,24.3-7.8.91-3.86-7.4-6.88-6.49-11.01,1.05-4.81,13.64-6.78,23.47-8.32,9.11-1.42,13.82-1.21,14.83-3.93.97-2.6-2.72-4.37-5.35-12.22-1.19-3.56-.71-4.02-2.34-10.36-1.75-6.78-2.62-10.17-3.9-10.36-3.91-.59-6.33,22.5-15.19,23.92-7.96,1.27-15.72-15.8-19.71-14.02-4.16,1.86,3.27,20.94-3.39,25.25-4.5,2.92-12.39-2.87-19.86,1.88-1.32.84-1.95,1.58-2.16,1.83-3.71,4.5-1.27,11.89-.5,14.98,4.02,16.13-8.37,31.96-6.04,33.12Z"/>
  <ellipse class="st1" cx="221.29" cy="35.4" rx="16.98" ry="14.9"/>
  <ellipse class="st1" cx="158.11" cy="35.4" rx="15.51" ry="13.16" transform="translate(-3.89 32.53) rotate(-11.6)"/>
  <ellipse class="st1" cx="96.14" cy="32.96" rx="13.16" ry="15.51" transform="translate(44.77 120.66) rotate(-78.57)"/>
  <path class="st5" d="M101.12,73.95c-2.57,1.24-7.76-4.28-21.82-7.23-10.41-2.18-14.26-.55-18.22-3.23-6.43-4.34.82-10.59-4.15-15.85-8.55-9.04-41.02-2.28-44.46-8.55-2.04-3.72,8.83-7.17,7.52-14.69-.88-5.1-6.63-7.87-4.82-9.54,1.76-1.62,7.23,1.03,16.65.34,9.05-.66,10.44-3.58,14.66-2.74,3.73.74,3.21,5.55,8.87,12.02,2.81,3.21,4.21,4.82,6.23,5.46,6.62,2.1,11.96-4.88,19.77-2.67,6.85,1.94,4.31,9.89,9.88,24.32,5.19,13.46,12.93,20.89,9.9,22.34Z"/>
  <ellipse class="st1" cx="30.9" cy="45.95" rx="18.69" ry="16.72"/>
  <path class="st5" d="M193.48,46.65c-.91-2.23-15.43,7.06-31.94,2.52-12.35-3.4-19.65-12.85-23.41-10.17-3.23,2.3,1.02,10.05-2.38,12.56-3.96,2.92-14.72-3.9-23.12-9.22-7.79-4.93-11.18-8.21-13.75-6.83-2.44,1.32-.83,5.08-4.03,12.72-1.45,3.47-2.12,3.49-5.07,9.34-3.16,6.25-4.74,9.37-3.9,10.37,2.55,3.02,19.6-12.74,27.19-7.97,6.82,4.29,1.4,22.25,5.58,23.54,4.36,1.35,11.35-17.9,19.21-16.75,5.31.78,7.42,10.33,16.17,11.69,1.54.24,2.51.1,2.83.05,5.76-.93,8.8-8.1,10.25-10.94,7.61-14.78,27.37-18.5,26.38-20.91Z"/>
  <path class="st0" d="M.02,27.27C-.03,99.45,59.96,157.94,130.58,156.54c68.73-1.37,125.51-59.04,125.44-129.27-24.63,11.25-71.16,28.6-131.71,27.87C67.76,54.46,24.2,38.32.02,27.27Z"/>
  <path class="st3" d="M230.11,37.71c.15,11.54-1.1,27.87-7.6,46-13.07,36.43-39.03,56.91-50.33,64.81,11.16-4.27,37.35-16.01,58.08-43.85,24-32.23,25.69-65.87,25.76-77.39-1.26.47-2.52.95-3.79,1.43-7.58,2.9-14.96,5.91-22.12,9.01Z"/>
  <path class="st2" d="M233.12,39.12"/>
</svg>