<?xml version="1.0" encoding="UTF-8"?>
<svg id="Layer_1" xmlns="http://www.w3.org/2000/svg" version="1.1" viewBox="0 0 256 144.74">
  <!-- Generator: Adobe Illustrator 29.1.0, SVG Export Plug-In . SVG Version: 2.1.0 Build 142)  -->
  <defs>
    <style>
      .st0 {
        fill: #efcf9d;
      }

      .st1 {
        fill: #cf1f36;
      }

      .st2 {
        fill: #f9e89e;
      }

      .st3 {
        fill: #83b146;
      }

      .st4 {
        fill: #f2dfb9;
      }

      .st5 {
        fill: #93c64f;
      }

      .st6 {
        fill: #b5192e;
      }
    </style>
  </defs>
  <path class="st0" d="M254.3,57.69c-.68-4.5-1.37-8.99-2.05-13.49-6.77,2.01-13.53,4.02-20.3,6.04,7.45,2.48,14.9,4.97,22.35,7.45Z"/>
  <path class="st0" d="M12.84,115.9c.8,6.76,1.6,13.52,2.4,20.28,5.32-4.46,10.65-8.92,15.97-13.38-6.12-2.3-12.24-4.6-18.37-6.89h0Z"/>
  <path class="st0" d="M16.76,131.42c11.36-26.52,22.72-53.05,34.09-79.57.92-1.6,2.92-4.56,6.62-6.91,0,0,4.75-3,11.48-3.25,9.03-.34,78.62,3.57,173.99,9.98,7.68,1.12,9.38,2.66,9.38,2.66.47.42,1.81,1.63,1.97,3.37,0,0,1.11,4.26-3.93,6.07-75.06,26.89-150.13,53.78-225.19,80.67-.7.17-4.16.93-6.88-.98-2.13-1.49-3.29-4.25-3.06-7.28.12-1.56.61-3.19,1.52-4.76h0Z"/>
  <path class="st4" d="M18.83,117.11c11.2-26.74,22.4-53.47,33.6-80.21.91-1.62,2.87-4.6,6.51-6.97,0,0,4.67-3.02,11.28-3.29,8.87-.36,77.2,3.47,170.85,9.77,7.54,1.12,9.21,2.67,9.21,2.67.46.42,1.77,1.64,1.93,3.39,0,0,1.08,4.29-3.87,6.12-73.76,27.21-147.51,54.41-221.27,81.62-9.68.7-12.34-.41-12.74-1.7-.38-1.21,1.27-2.42,3-6.61.8-1.94,1.25-3.63,1.5-4.79h0Z"/>
  <path class="st2" d="M16.65,118.99c46.38-4.42,92.75-8.83,139.13-13.25,30.97-26.84,61.94-53.68,92.9-80.52-60.01-3.82-120.01-7.64-180.02-11.46-17.34,35.08-34.68,70.16-52.01,105.24h0Z"/>
  <g>
    <g>
      <polygon class="st6" points="238.84 42.42 228.29 48.99 239.51 54.33 238.84 42.42"/>
      <polygon class="st6" points="59.96 52.55 60.64 64.46 75.28 57.66 59.96 52.55"/>
      <ellipse class="st6" cx="150.07" cy="59.4" rx="89.58" ry="25.26" transform="translate(-3.12 8.58) rotate(-3.24)"/>
      <ellipse class="st1" cx="149.4" cy="47.5" rx="89.58" ry="25.26" transform="translate(-2.45 8.52) rotate(-3.24)"/>
    </g>
    <g>
      <polygon class="st6" points="132.67 79.91 126.18 87.43 133.95 93.61 132.67 79.91"/>
      <polygon class="st6" points="15.37 90.87 16.65 104.58 25.84 96.8 15.37 90.87"/>
      <ellipse class="st6" cx="75.3" cy="99.1" rx="58.91" ry="29.16" transform="translate(-8.9 7.44) rotate(-5.34)"/>
      <ellipse class="st1" cx="74.02" cy="85.39" rx="58.91" ry="29.16" transform="translate(-7.63 7.26) rotate(-5.34)"/>
    </g>
  </g>
  <g>
    <path class="st3" d="M9.84,112.8c-6.96,5.25-10.88,10.45-9.59,13.3,1.28,2.85,7.45,2.7,11.42,2.56,11.76-.4,18.47-4.27,25.72-6.63,19.1-6.22,22.95,4.19,37.12-1.91,15.79-6.8,14.38-21.3,27.57-23.04,10.45-1.38,17.52,6.9,27,2.03,2.53-1.3,4.73-3.27,8.02-6.22,6.9-6.19,6.26-8,10.58-10.73,6.45-4.07,13.61-3.68,16.13-3.55,4.09.22,7.35,1.22,9.46,2.03,2.76.58,9.19,1.54,16.41-1.27,10.9-4.25,15.31-13.87,16.18-15.89,1.01-4.16,3.06-6.53,4.13-7.59,3.87-3.83,10.36-5.81,15.72-4.34,3,.82,4.62,2.43,6.9,1.55,2.09-.81,3.34-3.17,3.72-3.9,1.02-1.92.72-2.78,1.23-4.04,1.9-4.68,9.93-2.5,15.16-8.1.55-.59,2.4-2.69,3.04-5.87,1.11-5.55-1.87-12.42-6.42-13.99h0s-14.06,4.7-15.38,5.14c-8.67,2.91-65.13,25.49-224.12,90.46h0Z"/>
    <path class="st5" d="M9.8,109.37c-6.77,5.08-10.57,10.12-9.33,12.89,1.25,2.77,7.25,2.62,11.11,2.49,11.44-.39,17.96-4.13,25.01-6.41,18.57-6.02,22.32,4.06,36.09-1.84,15.36-6.58,13.98-20.63,26.81-22.32,10.16-1.34,17.03,6.69,26.26,1.97,2.46-1.26,4.6-3.17,7.79-6.03,6.71-5.99,6.09-7.75,10.29-10.4,6.27-3.95,13.23-3.57,15.68-3.43,3.97.22,7.15,1.18,9.19,1.97,2.68.57,8.94,1.5,15.96-1.23,10.6-4.12,14.88-13.44,15.73-15.39.98-4.03,2.97-6.32,4.01-7.35,3.76-3.71,10.07-5.62,15.28-4.21,2.92.79,4.49,2.36,6.71,1.5,2.03-.78,3.25-3.07,3.62-3.78.99-1.86.7-2.7,1.2-3.91,1.85-4.53,9.66-2.42,14.74-7.85.53-.57,2.33-2.61,2.95-5.68,1.08-5.38-1.83-12.04-6.25-13.56h0s-13.67,4.55-14.96,4.98c-8.43,2.81-63.33,24.68-217.91,87.61l.02-.02Z"/>
  </g>
  <g>
    <g>
      <path class="st0" d="M243.5,25.99l.51-8.46c-1.72,1.65-3.43,3.31-5.15,4.96l4.64,3.5Z"/>
      <polygon class="st0" points="10.78 95.99 10.23 104.7 24.55 96.87 10.78 95.99"/>
    </g>
    <g>
      <path class="st0" d="M11.72,99.87c11.14-26.93,22.28-53.86,33.42-80.79.9-1.63,2.85-4.63,6.47-7.03,0,0,4.64-3.05,11.2-3.32,8.8-.37,76.62,3.43,169.56,9.68,7.48,1.12,9.14,2.68,9.14,2.68.45.43,1.76,1.65,1.91,3.41,0,0,1.07,4.32-3.85,6.17C166.34,58.13,93.11,85.59,19.88,113.06c-.68.17-4.05.95-6.7-.98-2.07-1.51-3.19-4.3-2.96-7.37.12-1.58.6-3.24,1.5-4.83h0Z"/>
      <path class="st4" d="M12.28,91.16c11.14-26.93,22.28-53.86,33.42-80.79.9-1.63,2.85-4.63,6.47-7.03,0,0,4.64-3.05,11.2-3.32,8.8-.37,76.62,3.43,169.56,9.68,7.48,1.12,9.14,2.68,9.14,2.68.45.43,1.76,1.65,1.91,3.41,0,0,1.07,4.32-3.85,6.17C166.9,49.42,93.67,76.88,20.44,104.35c-.68.17-4.05.95-6.7-.98-2.07-1.51-3.19-4.3-2.96-7.37.12-1.58.6-3.24,1.5-4.83h0Z"/>
    </g>
  </g>
  <path class="st0" d="M239.49,2.45"/>
</svg>