<?xml version="1.0" encoding="UTF-8"?>
<svg xmlns="http://www.w3.org/2000/svg" version="1.1" viewBox="0 0 242.9 130.49">
  <!-- Generator: Adobe Illustrator 29.1.0, SVG Export Plug-In . SVG Version: 2.1.0 Build 142)  -->
  <defs>
    <style>
      .st0 {
        fill: #efcf9d;
      }

      .st1 {
        fill: #dbc399;
      }

      .st2 {
        fill: #cf1f36;
      }

      .st3 {
        fill: #f9e89e;
      }

      .st4 {
        fill: #f2dfb9;
      }

      .st5 {
        fill: #93c64e;
      }

      .st6 {
        fill: #93c64f;
      }

      .st7 {
        fill: #cf2036;
      }
    </style>
  </defs>
  <g id="Layer_1">
    <g>
      <path class="st4" d="M.02,15.56c4.36,63.14,55.93,112.75,117.2,114.86,64.3,2.21,120.99-48.53,125.65-114.86H.02Z"/>
      <path class="st1" d="M242.88,15.56c-6.9,4.44-13.8,8.88-20.71,13.32-1.5,8.93-4.15,18.75-8.63,28.89-20.23,45.78-63.6,65.68-79.37,71.99,9.55-1.12,23.68-3.89,39.15-11.36,27.98-13.51,43.38-34.19,49.64-43.77,15.81-24.21,19.09-47.73,19.92-59.08Z"/>
      <path class="st0" d="M.02,15.56c-1.29,10.99,63.07,31.73,121.95,31.6,58.2-.12,122.19-20.65,120.91-31.6C240.44-5.18,2.46-5.19.02,15.56Z"/>
    </g>
  </g>
  <g id="Layer_2">
    <path class="st3" d="M2.28,19.89c31.13-6.86,70.85-12.8,117.05-12.98,48.1-.18,89.31,5.93,121.28,12.98-.85.88-2.21,2.25-3.95,3.83-12.93,11.72-34.95,24.45-117.56,23.43-68.72-.84-92.54-10.12-110.53-22.6-2.71-1.88-4.86-3.54-6.28-4.66Z"/>
    <path class="st2" d="M100.23,35.34c-.93,2.56,4.24,7.59,9.92,9.43,6.93,2.24,15.47,0,16.13-3.23.4-1.99-2.25-4.06-3.72-5.21-4.68-3.66-10.2-3.4-13.89-3.23-3.97.19-7.76.37-8.44,2.23Z"/>
    <path class="st2" d="M177.23,23.76c-8.09-2.85-18.1,9.12-16.38,13.89,1.87,5.19,19.38,6.79,22.83,0,2.17-4.28-1.18-12.04-6.45-13.89Z"/>
    <path class="st2" d="M110.73,23.31c-.25-.06-4.05-1-4.22-2.98-.15-1.81,2.86-3.3,3.23-3.47,4.73-2.27,11.72,0,11.91,2.23.18,2.16-5.95,5.4-10.92,4.22Z"/>
    <path class="st2" d="M143.79,11.65c-.8.97-1.59,2.67-.99,3.72,1.11,1.95,6.45.79,8.93.25,1.26-.28,9.07-1.97,8.93-3.72-.17-2.19-12.84-5.18-16.87-.25Z"/>
    <path class="st6" d="M99.38,11.7c-1.79-1.94-6.64-.63-8.7,2.18-1.02,1.39-.63,2.15-1.46,9.46-.47,4.13-.7,4.87-.21,5.21,1.48,1.01,7.05-3.27,9.55-8.88.56-1.26,2.66-5.97.82-7.98Z"/>
    <path class="st6" d="M194.19,20.45c-1.32.86-2.52,3.16-1.98,4.71,1.46,4.25,17.11,4.42,18.36.74.28-.81-.19-1.69-.5-2.18-.49-.58-4.96-5.74-11.17-5.02-2.03.24-3.63,1.04-4.71,1.74Z"/>
    <path class="st6" d="M144.5,25.75c-9.41-2.4-19.13.37-19.1,1.98.02,1.2,5.4.22,13.89,3.97,5.8,2.56,8.69,5.4,12.41,4.22,1.55-.49,3.5-1.77,3.58-3.32.17-2.93-6.43-5.74-10.78-6.86Z"/>
    <path class="st2" d="M82.19,25.07c1.54.34,1.48,1.97,4.64,6.67,2.43,3.62,3.43,4.09,3.19,5.22-.52,2.46-6.25,4.92-10.43,2.61-2.96-1.64-4.57-5.35-3.77-8.69.81-3.39,4.08-6.3,6.38-5.8Z"/>
    <path class="st5" d="M69.15,14.93c.96,1.66-6.53,4.87-7.25,12.17-.58,5.85,3.62,9.92,2.32,11.01-1.2,1-5.67-1.68-8.4-5.22-.94-1.22-4.59-5.92-3.19-10.72,2.22-7.62,15.34-9.29,16.52-7.25Z"/>
    <path class="st7" d="M14.95,21.59c-.48,1.9,1.69,4.6,4.06,5.51,3.96,1.52,6.48-2.76,11.3-2.32,6.59.6,8.75,9.23,12.17,8.4,2.78-.67,5.09-7.28,2.9-11.3-4.59-8.43-29.05-5.76-30.43-.29Z"/>
  </g>
</svg>